<svg width="1920" height="1188" viewBox="0 0 1920 1188" fill="none" xmlns="http://www.w3.org/2000/svg">
<rect width="1920" height="1188" fill="url(#paint0_linear)"/>
<path opacity="0.6" d="M985.856 -452.987C1009.85 -485.635 1045.84 -502.819 1093.83 -506.255C1181.23 -513.129 1230.93 -471.889 1242.93 -382.536C1296.06 -23.4058 1354.33 280.738 1416.03 529.895L1791.36 -186.647C1825.63 -251.943 1868.48 -286.31 1919.89 -289.746C1995.3 -294.901 2041.58 -246.788 2060.43 -145.407C2103.27 83.1301 2158.12 277.301 2223.24 442.26C2267.8 5.80566 2343.21 -308.648 2449.47 -502.819C2475.18 -550.932 2512.88 -574.988 2562.58 -578.425C2602 -581.861 2637.99 -569.833 2670.55 -544.058C2703.12 -518.283 2720.25 -485.636 2723.68 -446.114C2725.4 -415.184 2720.25 -389.409 2706.54 -363.634C2639.7 -239.915 2584.86 -31.9973 2540.3 256.681C2497.46 536.768 2482.03 754.995 2492.31 911.363C2495.74 954.321 2488.89 992.124 2471.75 1024.77C2451.18 1062.58 2420.33 1083.2 2380.92 1086.63C2336.36 1090.07 2290.08 1069.45 2245.52 1023.05C2086.14 859.813 1959.31 615.811 1866.77 291.048C1755.37 510.994 1673.1 675.953 1619.97 785.925C1518.86 980.096 1433.17 1079.76 1361.19 1084.91C1314.91 1088.35 1275.49 1048.83 1241.22 966.35C1153.81 741.249 1059.55 306.513 958.435 -337.859C953.293 -382.536 961.862 -422.057 985.856 -452.987Z" fill="white"/>
<defs>
<linearGradient id="paint0_linear" x1="960" y1="0" x2="960" y2="1188" gradientUnits="userSpaceOnUse">
<stop stop-color="#E5EFFF"/>
<stop offset="0.836972" stop-color="#E5EFFF" stop-opacity="0.262661"/>
<stop offset="1" stop-color="#E5EFFF" stop-opacity="0"/>
</linearGradient>
</defs>
</svg>
