<svg xmlns="http://www.w3.org/2000/svg" width="500" height="500" style="width:100%;height:100%"><defs><filter id="a" filterUnits="objectBoundingBox" x="0%" y="0%" width="100%" height="100%"><feComponentTransfer in="SourceGraphic"><feFuncA type="table" tableValues="1.0 0.0"/></feComponentTransfer></filter><filter id="b" filterUnits="objectBoundingBox" x="0%" y="0%" width="100%" height="100%"><feComponentTransfer in="SourceGraphic"><feFuncA type="table" tableValues="1.0 0.0"/></feComponentTransfer></filter><mask id="e"><g filter="url(#a)"><path fill="red" d="M65.622 25.757l.024 13.217H39.821L28.918 6.463 6.067 38.974h-71.713l.024-13.217c.053-29.371 18.961-53.631 47.108-62.024A64.497 64.497 0 010-38.974c6.644 0 12.82 1.009 18.514 2.707 28.147 8.393 47.055 32.653 47.108 62.024z" transform="translate(250 129.532)" display="block"/></g></mask><mask id="d"><g filter="url(#b)"><path fill="red" d="M60.898-76.632l-1.324 37.095C58.458-7.442 32.115 18 0 18c-32.115 0-58.458-25.442-59.574-57.537l-1.07-40.125" transform="translate(250 252)" display="block"/></g></mask><clipPath id="c"><path d="M0 0h500v500H0z"/></clipPath></defs><g clip-path="url(#c)"><path stroke-linecap="round" stroke-linejoin="round" stroke="#121331" stroke-width="12.04" d="M177.24 407.09l.13-124.36m145.37 123.95l-.12-123.86m-112.65-6.13v93.4m80-93.21v93.4m32.5-.1l-145.1-.09" fill="none" display="block"/><g mask="url(#d)" display="block"><path stroke-linecap="round" stroke-linejoin="round" stroke="#121331" stroke-width="12.04" d="M283.87 256.345v18.94c0 18.63-33.88 48.971-33.88 48.971s-33.87-30.341-33.87-48.971v-18.93" fill="none"/></g><g mask="url(#e)" display="block"><path stroke-linecap="round" stroke-linejoin="round" stroke="#08A88A" stroke-width="12.04" d="M201.645 99.559c0 27.318 22.146 49.464 49.464 49.464 27.318 0 49.464-22.146 49.464-49.464 0-27.318-22.146-49.464-49.464-49.464-27.318 0-49.464 22.146-49.464 49.464z" fill="none"/></g><path stroke-linecap="round" stroke-linejoin="round" stroke="#121331" stroke-width="12.04" d="M283.88 276.69h7.62c45.84 0 83 37.16 83 83v27.76c0 7.62-5.71 14.03-13.28 14.9l-29.04 3.36a85.26 85.26 0 00-23.07 6.03c-18.91 7.91-39 11.88-59.11 11.92h-.3c-20.1 0-40.2-3.93-59.12-11.8l-.2-.08c-7.69-3.2-15.79-5.3-24.07-6.26l-27.53-3.17c-7.57-.87-13.28-7.28-13.28-14.9v-27.76c0-45.84 37.16-83 83-83h7.63M312.77 169.431l-3.196 43.032C308.458 244.558 282.115 270 250 270c0 0 0 0 0 0-32.115 0-58.458-25.442-59.574-57.537l-2.672-42.514" fill="none" display="block"/><path stroke-linecap="round" stroke-linejoin="round" stroke="#08A88A" stroke-width="12.04" d="M315.622 155.289l.024 13.217h-25.825l-10.903-32.511-22.851 32.511h-71.713l.024-13.217c.053-29.371 18.961-53.631 47.108-62.024A64.497 64.497 0 01250 90.558c6.644 0 12.82 1.009 18.514 2.707 28.147 8.393 47.055 32.653 47.108 62.024z" fill="none" display="block"/><g display="block"><path stroke-linecap="round" stroke-linejoin="round" stroke="#08A88A" stroke-width="12.04" d="M73.943 227.514l27.072-24.03M148.41 227.099l-27.338-23.726M67.388 241.836c.058 10.332 8.48 18.662 18.812 18.604 10.332-.058 18.662-8.48 18.604-18.812-.058-10.332-8.48-18.662-18.812-18.604-10.332.058-18.662 8.48-18.604 18.812zM117.709 241.556c.058 10.332 8.48 18.662 18.812 18.604 10.332-.058 18.662-8.48 18.604-18.812-.058-10.332-8.48-18.662-18.812-18.604-10.332.058-18.662 8.48-18.604 18.812z" fill="none"/><path stroke-linecap="round" stroke-linejoin="round" stroke="#121331" stroke-width="12.04" d="M111.034 203.428l-10.019.056 4.739-48.652 4.738-48.652 5.281 48.596 5.28 48.596-10.019.056z" fill="none"/></g><g display="block"><path stroke-linecap="round" stroke-linejoin="round" stroke="#08A88A" stroke-width="12.04" d="M365.796 121.979h42.6M365.796 152.645h42.6M365.796 183.31h42.6M365.796 213.976h42.6M365.796 244.641h42.6M365.796 122.373v122.268" fill="none"/></g></g></svg>